<svg width="27" height="27" viewBox="0 0 27 27" fill="none" xmlns="http://www.w3.org/2000/svg">
<rect x="0.5" y="0.5" width="26" height="26" rx="3.5" fill="white" stroke="black"/>
<path d="M21.1986 14.5285C22.2761 12.4759 20.086 11.0525 17.2226 10.3544C17.438 9.86478 17.5005 9.22381 16.893 8.61181C16.1139 7.82853 16.6317 6.6875 16.6317 6.6875C16.6317 6.6875 14.9965 8.19584 16.029 9.23591C16.4098 9.61925 16.6081 9.95591 16.7028 10.2374C15.9124 10.0745 15.1119 9.9642 14.3069 9.90725C14.5473 9.25363 14.5707 8.43266 13.813 7.64656C12.7757 6.56909 13.4665 5 13.4665 5C13.4665 5 11.286 7.07394 12.6627 8.50381C13.1653 9.02525 13.4299 9.48425 13.5582 9.869C12.7049 9.84341 11.8836 9.88081 11.1541 9.98291C11.241 9.56244 11.1684 9.07897 10.7046 8.61209C9.92556 7.82881 10.4436 6.6875 10.4436 6.6875C10.4436 6.6875 8.80815 8.19584 9.8409 9.23591C10.1643 9.56159 10.3539 9.85241 10.4627 10.1058C10.3396 10.1328 10.22 10.1621 10.105 10.1938C6.54943 9.86112 4.99862 10.5958 5.70709 12.0369C4.47071 13.2733 4.93534 14.6843 6.48249 15.764C7.28968 19.0887 7.49752 21.875 13.577 21.875C19.0018 21.875 19.7513 19.6559 20.4232 16.8159C22.4392 16.4145 22.0097 15.4482 21.1986 14.5285V14.5285ZM20.696 14.1963C20.0207 15.6363 17.0901 16.7203 13.577 16.7203C10.0642 16.7203 7.13359 15.6363 6.45802 14.1963C6.44368 14.1536 6.4299 14.1091 6.41612 14.0658C6.73787 13.2496 7.78355 12.5414 9.25224 12.0673C8.90715 12.4008 8.83543 12.8989 9.74359 13.0736C10.0035 13.1236 10.717 12.9504 10.4051 12.065C10.3615 11.9413 10.2903 11.8583 10.2029 11.8082C11.212 11.5773 12.3575 11.4443 13.577 11.4443C13.7137 11.4443 13.8479 11.4491 13.9826 11.4522C13.2789 11.7019 12.7049 12.4714 14.1418 12.6984C14.459 12.7484 15.3301 12.5752 14.9492 11.6898C14.916 11.6109 14.8626 11.5421 14.7946 11.4901C16.1409 11.5891 17.3607 11.8484 18.3467 12.2222C17.4796 12.1738 16.5178 12.7082 18.0582 13.4606C18.3886 13.622 19.3927 13.7702 19.2546 12.7926C19.2446 12.722 19.2197 12.6543 19.1815 12.594C19.9698 13.0094 20.5197 13.5132 20.7376 14.0658L20.696 14.1963Z" fill="black"/>
<path d="M11.7104 13.24C11.5825 13.4971 11.5816 13.6912 11.7296 13.8931C11.7315 13.8937 11.7892 13.2693 12.172 13.0105C12.2032 13.2215 12.5345 13.3238 12.5345 13.3238C12.2696 12.3856 13.043 12.3367 13.0393 12C12.6293 12.0346 12.3964 12.3327 12.3964 12.3327C12.0676 12.2655 11.7113 12.4373 11.7113 12.4373C11.7113 12.4373 12.0097 12.5805 12.1697 12.6258C11.871 12.8724 11.3052 12.547 11.3052 12.547C11.3052 12.547 11.3052 12.8328 11.5302 12.9411C11.0456 13.1197 11 13.4909 11 13.4909C11 13.4909 11.5079 13.2009 11.7104 13.24V13.24ZM18.8967 14.5214C19.0131 14.3003 18.8432 14.0706 18.8432 14.0706C18.8432 14.0706 18.5819 14.6688 18.1952 14.6482C18.297 14.5166 18.4517 14.2241 18.4517 14.2241C18.4517 14.2241 18.063 14.2981 17.8386 14.5476C17.8386 14.5476 17.4741 14.4466 17.1242 14.6626C17.3217 14.9354 17.9725 14.5144 18.3176 15.4262C18.3176 15.4262 18.5229 15.1469 18.4225 14.9587C18.8843 14.9388 19.3022 15.4062 19.3036 15.4045C19.3019 15.1542 19.1861 14.999 18.9298 14.8685C19.0693 14.7169 19.6504 14.648 19.6504 14.648C19.6504 14.648 19.3928 14.3766 18.8967 14.5214" fill="#DB1E3D"/>
<path d="M12.2187 14.8261C13.128 14.8261 13.7344 14.004 14.2094 13.6822C14.8732 13.2322 16.5421 13.0567 15.0723 13.0213C13.6781 12.9878 11.9569 14.1196 10.8066 14.0417C8.90194 13.9123 10.8527 14.8261 12.2187 14.8261V14.8261ZM14.1835 16.5057C14.5047 16.5676 15.3876 16.3532 15.0014 15.2583C14.5652 14.0194 11.9245 16.0709 14.1835 16.5057ZM9.18403 13.7958C8.87719 13.3627 8.43225 12.8134 8.24803 13.0995C7.99632 13.4907 7.917 14.2779 8.09982 14.3128C9.53307 14.5876 9.43266 14.1466 9.18403 13.7958V13.7958ZM17.5161 13.9713C17.7745 13.6513 17.2584 12.8809 16.9271 13.0157C16.4085 13.2266 16.1095 13.0837 15.8817 13.4038C15.3482 14.1533 17.1648 14.4059 17.5161 13.9713ZM17.3546 14.8885C16.9828 14.7245 17.0706 15.2738 16.5213 14.8331C16.1281 14.5175 15.2821 15.3135 15.8401 15.854C16.4611 16.4556 16.6265 15.8838 16.8875 15.9319C17.4179 16.0295 18.33 15.3188 17.3546 14.8885ZM11.1722 15.0764C10.9784 14.8857 10.7185 15.1157 10.5717 15.3964C10.4263 15.325 10.3079 15.3084 10.3079 15.3084C10.1968 14.9917 9.86635 14.7746 9.86635 14.7746C9.86635 14.7746 9.89644 15.1039 9.94003 15.2645C9.57497 15.1349 9.56372 14.4824 9.56372 14.4824C9.56372 14.4824 9.31875 14.6289 9.34097 14.8778C8.93907 14.5535 8.59678 14.7051 8.59678 14.7051C8.59678 14.7051 9.10669 14.992 9.177 15.1855C8.89069 15.2077 8.72363 15.3067 8.62632 15.5371C8.6266 15.539 9.19219 15.2679 9.61069 15.4637C9.4456 15.5987 9.52772 15.9359 9.52772 15.9359C9.91725 15.523 10.2283 15.5672 10.4772 15.6411C10.4471 15.7674 10.4491 15.8827 10.5025 15.9527C10.9343 16.5203 12.4381 16.3926 12.842 15.973C13.3311 15.4653 11.9721 15.8636 11.1722 15.0764" fill="#DB1E3D"/>
</svg>
